<?xml version="1.0" encoding="utf-8"?>
<!-- Generator: Adobe Illustrator 16.0.0, SVG Export Plug-In . SVG Version: 6.00 Build 0)  -->
<!DOCTYPE svg PUBLIC "-//W3C//DTD SVG 1.1//EN" "http://www.w3.org/Graphics/SVG/1.1/DTD/svg11.dtd">
<svg version="1.1" id="Layer_6" xmlns="http://www.w3.org/2000/svg" xmlns:xlink="http://www.w3.org/1999/xlink" x="0px" y="0px"
	 width="148.5px" height="106px" viewBox="19 24.2 148.5 106" style="enable-background:new 19 24.2 148.5 106;"
	 xml:space="preserve">
<style type="text/css">
<![CDATA[
	.st0{fill:none;stroke:#4E50A2;stroke-miterlimit:10;}
	.st1{fill:#4E50A2;stroke:#4E50A2;stroke-miterlimit:10;}
	.st2{fill:#4E50A2;}
]]>
</style>
<g>
	<path class="st2" d="M150.7,66.5c-1.4-5.5-2-20.7-8.5-16.3c-5.4,3.7-7.9,11.7-6.1,22.8c-8.7,3.3-15.1,0.4-23.8-2.4
		c-9.4-2.9-15.6-4.6-23.6-5.1c-9.4-0.4-27.1-0.4-32.6,0c-23.6,1.4-36.9,13.3-37,31c-0.2,22.8,25.9,37.6,60.5,32.8
		c28.3-3.9,48.2-19.4,64.2-47.5c9.6,1,17.3-1.6,22.1-6.5C171.8,69.1,160.7,67.1,150.7,66.5z"/>
</g>
<rect x="64.3" y="45" class="st0" width="18.2" height="18.2"/>
<rect x="84.6" y="45" class="st0" width="18.2" height="18.2"/>
<g>
	<path class="st1" d="M73.4,49.3c0,3.2,0,6.4,0,9.6"/>
	<g>
		<path class="st1" d="M72.9,49.3c0,3.2,0,6.5,0,9.6c0,0.7,1.1,0.7,1.1,0c0-3.2,0-6.5,0-9.6C74,48.6,72.9,48.6,72.9,49.3L72.9,49.3z
			"/>
	</g>
</g>
<g>
	<path class="st1" d="M68.5,54.1c3.3,0,6.6,0,9.9,0"/>
	<g>
		<path class="st1" d="M68.5,54.7c3.3,0,6.6,0,9.9,0c0.7,0,0.7-1.1,0-1.1c-3.3,0-6.6,0-9.9,0C67.8,53.6,67.8,54.7,68.5,54.7
			L68.5,54.7z"/>
	</g>
</g>
<g>
	<path class="st1" d="M93.7,49.3c0,3.2,0,6.4,0,9.6"/>
	<g>
		<path class="st1" d="M93.2,49.3c0,3.2,0,6.5,0,9.6c0,0.7,1.1,0.7,1.1,0c0-3.2,0-6.5,0-9.6C94.3,48.6,93.2,48.6,93.2,49.3
			L93.2,49.3z"/>
	</g>
</g>
<g>
	<path class="st1" d="M88.7,54.1c3.3,0,6.6,0,9.9,0"/>
	<g>
		<path class="st1" d="M88.7,54.7c3.3,0,6.6,0,9.9,0c0.7,0,0.7-1.1,0-1.1c-3.3,0-6.6,0-9.9,0C88,53.6,88,54.7,88.7,54.7L88.7,54.7z"
			/>
	</g>
</g>
<rect x="44" y="45" class="st0" width="18.2" height="18.2"/>
<g>
	<path class="st1" d="M53.1,49.3c0,3.2,0,6.4,0,9.6"/>
	<g>
		<path class="st1" d="M52.6,49.3c0,3.2,0,6.5,0,9.6c0,0.7,1.1,0.7,1.1,0c0-3.2,0-6.5,0-9.6C53.6,48.6,52.6,48.6,52.6,49.3
			L52.6,49.3z"/>
	</g>
</g>
<g>
	<path class="st1" d="M48.1,54.1c3.3,0,6.6,0,9.9,0"/>
	<g>
		<path class="st1" d="M48.1,54.7c3.3,0,6.6,0,9.9,0c0.7,0,0.7-1.1,0-1.1c-3.3,0-6.6,0-9.9,0C47.4,53.6,47.4,54.7,48.1,54.7
			L48.1,54.7z"/>
	</g>
</g>
<rect x="54.2" y="24.7" class="st0" width="18.2" height="18.2"/>
<rect x="74.4" y="24.7" class="st0" width="18.2" height="18.2"/>
<g>
	<path class="st1" d="M63.3,29c0,3.2,0,6.4,0,9.6"/>
	<g>
		<path class="st1" d="M62.8,29c0,3.2,0,6.5,0,9.6c0,0.7,1.1,0.7,1.1,0c0-3.2,0-6.5,0-9.6C63.8,28.3,62.8,28.3,62.8,29L62.8,29z"/>
	</g>
</g>
<g>
	<path class="st1" d="M58.3,33.8c3.3,0,6.6,0,9.9,0"/>
	<g>
		<path class="st1" d="M58.3,34.4c3.3,0,6.6,0,9.9,0c0.7,0,0.7-1.1,0-1.1c-3.3,0-6.6,0-9.9,0C57.6,33.3,57.6,34.4,58.3,34.4
			L58.3,34.4z"/>
	</g>
</g>
<g>
	<path class="st1" d="M82.6,29c0,3.2,0,6.4,0,9.6"/>
	<g>
		<path class="st1" d="M82,29c0,3.2,0,6.5,0,9.6c0,0.7,1.1,0.7,1.1,0c0-3.2,0-6.5,0-9.6C83.2,28.3,82,28.3,82,29L82,29z"/>
	</g>
</g>
<g>
	<path class="st1" d="M78.6,33.8c3.3,0,6.6,0,9.9,0"/>
	<g>
		<path class="st1" d="M78.6,34.4c3.3,0,6.6,0,9.9,0c0.7,0,0.7-1.1,0-1.1c-3.3,0-6.6,0-9.9,0C77.9,33.3,77.9,34.4,78.6,34.4
			L78.6,34.4z"/>
	</g>
</g>
</svg>
