<?xml version="1.0" encoding="utf-8"?>
<!-- Generator: Adobe Illustrator 16.0.0, SVG Export Plug-In . SVG Version: 6.00 Build 0)  -->
<!DOCTYPE svg PUBLIC "-//W3C//DTD SVG 1.1//EN" "http://www.w3.org/Graphics/SVG/1.1/DTD/svg11.dtd">
<svg version="1.1" id="Layer_6" xmlns="http://www.w3.org/2000/svg" xmlns:xlink="http://www.w3.org/1999/xlink" x="0px" y="0px"
	 width="148.4px" height="106px" viewBox="0 0 148.4 106" style="enable-background:new 0 0 148.4 106;" xml:space="preserve">
<style type="text/css">
<![CDATA[
	.st0{fill:#FFFFFF;stroke:#FFFFFF;stroke-miterlimit:10;}
	.st1{fill:#FFFFFF;stroke:#FFFFFF;stroke-miterlimit:10;}
	.st2{fill:#FFFFFF;}
]]>
</style>
<g>
	<path class="st2" d="M131.6,42.3c-1.4-5.5-2-20.7-8.5-16.3c-5.4,3.7-7.9,11.7-6.1,22.8c-8.7,3.3-15.1,0.4-23.8-2.4
		c-9.4-2.9-15.6-4.6-23.6-5.1c-9.4-0.4-27.1-0.4-32.6,0c-23.6,1.4-36.9,13.3-37,31c-0.2,22.8,25.9,37.6,60.5,32.8
		c28.3-3.9,48.2-19.4,64.2-47.5c9.6,1,17.3-1.6,22.1-6.5C152.7,44.9,141.6,42.9,131.6,42.3z"/>
</g>
<rect x="45.2" y="20.8" class="st0" width="18.2" height="18.2"/>
<rect x="65.5" y="20.8" class="st0" width="18.2" height="18.2"/>
<g>
	<path class="st1" d="M54.3,25.1c0,3.2,0,6.4,0,9.6"/>
	<g>
		<path class="st1" d="M53.8,25.1c0,3.2,0,6.5,0,9.6c0,0.7,1.1,0.7,1.1,0c0-3.2,0-6.5,0-9.6C54.9,24.4,53.8,24.4,53.8,25.1
			L53.8,25.1z"/>
	</g>
</g>
<g>
	<path class="st1" d="M49.4,29.9c3.3,0,6.6,0,9.9,0"/>
	<g>
		<path class="st1" d="M49.4,30.5c3.3,0,6.6,0,9.9,0c0.7,0,0.7-1.1,0-1.1c-3.3,0-6.6,0-9.9,0C48.7,29.4,48.7,30.5,49.4,30.5
			L49.4,30.5z"/>
	</g>
</g>
<g>
	<path class="st1" d="M74.6,25.1c0,3.2,0,6.4,0,9.6"/>
	<g>
		<path class="st1" d="M74.1,25.1c0,3.2,0,6.5,0,9.6c0,0.7,1.1,0.7,1.1,0c0-3.2,0-6.5,0-9.6C75.2,24.4,74.1,24.4,74.1,25.1
			L74.1,25.1z"/>
	</g>
</g>
<g>
	<path class="st1" d="M69.6,29.9c3.3,0,6.6,0,9.9,0"/>
	<g>
		<path class="st1" d="M69.6,30.5c3.3,0,6.6,0,9.9,0c0.7,0,0.7-1.1,0-1.1c-3.3,0-6.6,0-9.9,0C68.9,29.4,68.9,30.5,69.6,30.5
			L69.6,30.5z"/>
	</g>
</g>
<rect x="24.9" y="20.8" class="st0" width="18.2" height="18.2"/>
<g>
	<path class="st1" d="M34,25.1c0,3.2,0,6.4,0,9.6"/>
	<g>
		<path class="st1" d="M33.5,25.1c0,3.2,0,6.5,0,9.6c0,0.7,1.1,0.7,1.1,0c0-3.2,0-6.5,0-9.6C34.5,24.4,33.5,24.4,33.5,25.1
			L33.5,25.1z"/>
	</g>
</g>
<g>
	<path class="st1" d="M29,29.9c3.3,0,6.6,0,9.9,0"/>
	<g>
		<path class="st1" d="M29,30.5c3.3,0,6.6,0,9.9,0c0.7,0,0.7-1.1,0-1.1c-3.3,0-6.6,0-9.9,0C28.3,29.4,28.3,30.5,29,30.5L29,30.5z"/>
	</g>
</g>
<rect x="35.1" y="0.5" class="st0" width="18.2" height="18.2"/>
<rect x="55.3" y="0.5" class="st0" width="18.2" height="18.2"/>
<g>
	<path class="st1" d="M44.2,4.8c0,3.2,0,6.4,0,9.6"/>
	<g>
		<path class="st1" d="M43.7,4.8c0,3.2,0,6.5,0,9.6c0,0.7,1.1,0.7,1.1,0c0-3.2,0-6.5,0-9.6C44.7,4.1,43.7,4.1,43.7,4.8L43.7,4.8z"/>
	</g>
</g>
<g>
	<path class="st1" d="M39.2,9.6c3.3,0,6.6,0,9.9,0"/>
	<g>
		<path class="st1" d="M39.2,10.2c3.3,0,6.6,0,9.9,0c0.7,0,0.7-1.1,0-1.1c-3.3,0-6.6,0-9.9,0C38.5,9.1,38.5,10.2,39.2,10.2
			L39.2,10.2z"/>
	</g>
</g>
<g>
	<path class="st1" d="M64.5,4.8c0,3.2,0,6.4,0,9.6"/>
	<g>
		<path class="st1" d="M63.9,4.8c0,3.2,0,6.5,0,9.6c0,0.7,1.1,0.7,1.1,0c0-3.2,0-6.5,0-9.6C65.1,4.1,63.9,4.1,63.9,4.8L63.9,4.8z"/>
	</g>
</g>
<g>
	<path class="st1" d="M59.5,9.6c3.3,0,6.6,0,9.9,0"/>
	<g>
		<path class="st1" d="M59.5,10.2c3.3,0,6.6,0,9.9,0c0.7,0,0.7-1.1,0-1.1c-3.3,0-6.6,0-9.9,0C58.8,9.1,58.8,10.2,59.5,10.2
			L59.5,10.2z"/>
	</g>
</g>
</svg>
