<?xml version="1.0" encoding="utf-8"?>
<!-- Generator: Adobe Illustrator 16.0.0, SVG Export Plug-In . SVG Version: 6.00 Build 0)  -->
<!DOCTYPE svg PUBLIC "-//W3C//DTD SVG 1.1//EN" "http://www.w3.org/Graphics/SVG/1.1/DTD/svg11.dtd">
<svg version="1.1" id="Layer_6" xmlns="http://www.w3.org/2000/svg" xmlns:xlink="http://www.w3.org/1999/xlink" x="0px" y="0px"
	 width="245px" height="171.8px" viewBox="210.5 175.8 245 171.8" style="enable-background:new 210.5 175.8 245 171.8;"
	 xml:space="preserve">
<style type="text/css">
<![CDATA[
	.st0{fill:#FFFFFF;}
	.st1{fill:#202631;}
	.st2{fill:#3F6A8E;}
]]>
</style>
<g>
	<path class="st0" d="M413,266.4c-25.4,44.6-57,69-101.8,75.3c-54.9,7.6-96.3-15.8-96-52c0.1-28.1,21.3-47,58.8-49.2
		c8.8-0.6,36.8-0.7,51.7,0c12.8,0.6,22.6,3.5,37.5,8.1c13.9,4.3,24,8.9,37.8,3.8c-2.8-17.5,1.1-30.3,9.7-36.1
		c10.1-6.9,11.3,17.1,13.5,25.8c15.7,1,33.5,4.3,23.9,14.2C440.4,263.9,428.3,267.9,413,266.4"/>
</g>
<rect x="285.4" y="209.4" class="st0" width="28.9" height="28.9"/>
<rect x="316.1" y="209.4" class="st0" width="28.9" height="28.9"/>
<g>
	<path class="st2" d="M299.8,216.2c0,5.1,0,10.1,0,15.3"/>
	<g>
		<path class="st1" d="M299,216.2c0,5.1,0,10.3,0,15.3c0,1.1,1.8,1.1,1.8,0c0-5.1,0-10.3,0-15.3C300.8,215.1,299,215.1,299,216.2
			L299,216.2z"/>
	</g>
</g>
<g>
	<path class="st2" d="M292,223.9c5.3,0,10.4,0,15.7,0"/>
	<g>
		<path class="st1" d="M292,224.7c5.3,0,10.4,0,15.7,0c1.1,0,1.1-1.8,0-1.8c-5.3,0-10.4,0-15.7,0C290.9,223.1,290.9,224.7,292,224.7
			L292,224.7z"/>
	</g>
</g>
<g>
	<path class="st2" d="M330.5,216.2c0,5.1,0,10.1,0,15.3"/>
	<g>
		<path class="st1" d="M329.7,216.2c0,5.1,0,10.3,0,15.3c0,1.1,1.8,1.1,1.8,0c0-5.1,0-10.3,0-15.3
			C331.3,215.1,329.7,215.1,329.7,216.2L329.7,216.2z"/>
	</g>
</g>
<g>
	<path class="st2" d="M322.6,223.9c5.3,0,10.4,0,15.7,0"/>
	<g>
		<path class="st1" d="M322.6,224.7c5.3,0,10.4,0,15.7,0c1.1,0,1.1-1.8,0-1.8c-5.3,0-10.4,0-15.7,0
			C321.5,223.1,321.5,224.7,322.6,224.7L322.6,224.7z"/>
	</g>
</g>
<rect x="254.7" y="209.4" class="st0" width="28.9" height="28.9"/>
<g>
	<path class="st2" d="M269.1,216.2c0,5.1,0,10.1,0,15.3"/>
	<g>
		<path class="st1" d="M268.3,216.2c0,5.1,0,10.3,0,15.3c0,1.1,1.8,1.1,1.8,0c0-5.1,0-10.3,0-15.3
			C269.9,215.1,268.3,215.1,268.3,216.2L268.3,216.2z"/>
	</g>
</g>
<g>
	<path class="st2" d="M261.2,223.9c5.3,0,10.4,0,15.7,0"/>
	<g>
		<path class="st1" d="M261.2,224.7c5.3,0,10.4,0,15.7,0c1.1,0,1.1-1.8,0-1.8c-5.3,0-10.4,0-15.7,0
			C260.1,223.1,260.1,224.7,261.2,224.7L261.2,224.7z"/>
	</g>
</g>
<rect x="270.2" y="178.6" class="st0" width="28.9" height="28.9"/>
<rect x="300.8" y="178.6" class="st0" width="28.9" height="28.9"/>
<g>
	<path class="st2" d="M284.7,185.4c0,5.1,0,10.1,0,15.3"/>
	<g>
		<path class="st1" d="M283.8,185.4c0,5.1,0,10.3,0,15.3c0,1.1,1.8,1.1,1.8,0c0-5.1,0-10.3,0-15.3
			C285.5,184.3,283.8,184.3,283.8,185.4L283.8,185.4z"/>
	</g>
</g>
<g>
	<path class="st2" d="M276.7,193c5.3,0,10.4,0,15.7,0"/>
	<g>
		<path class="st1" d="M276.7,194c5.3,0,10.4,0,15.7,0c1.1,0,1.1-1.8,0-1.8c-5.3,0-10.4,0-15.7,0C275.6,192.2,275.6,194,276.7,194
			L276.7,194z"/>
	</g>
</g>
<g>
	<path class="st2" d="M315.2,185.4c0,5.1,0,10.1,0,15.3"/>
	<g>
		<path class="st1" d="M314.4,185.4c0,5.1,0,10.3,0,15.3c0,1.1,1.8,1.1,1.8,0c0-5.1,0-10.3,0-15.3
			C316.2,184.3,314.4,184.3,314.4,185.4L314.4,185.4z"/>
	</g>
</g>
<g>
	<path class="st2" d="M307.4,193c5.3,0,10.4,0,15.7,0"/>
	<g>
		<path class="st1" d="M307.4,194c5.3,0,10.4,0,15.7,0c1.1,0,1.1-1.8,0-1.8c-5.3,0-10.4,0-15.7,0C306.3,192.2,306.3,194,307.4,194
			L307.4,194z"/>
	</g>
</g>
</svg>
