<?xml version="1.0" encoding="utf-8"?>
<!-- Generator: Adobe Illustrator 16.0.0, SVG Export Plug-In . SVG Version: 6.00 Build 0)  -->
<!DOCTYPE svg PUBLIC "-//W3C//DTD SVG 1.1//EN" "http://www.w3.org/Graphics/SVG/1.1/DTD/svg11.dtd">
<svg version="1.1" id="Layer_6" xmlns="http://www.w3.org/2000/svg" xmlns:xlink="http://www.w3.org/1999/xlink" x="0px" y="0px"
	 width="154.4px" height="28.6px" viewBox="217.6 238.1 154.4 28.6" style="enable-background:new 217.6 238.1 154.4 28.6;"
	 xml:space="preserve">
<style type="text/css">
<![CDATA[
	.st0{fill:#4D50A2;}
	.st1{fill:none;}
]]>
</style>
<g>
	<path class="st1" d="M256.9,250.6c-1-0.6-2.1-0.9-3.4-0.9s-2.4,0.3-3.4,0.9s-1.8,1.4-2.3,2.4c-0.6,1-0.8,2.2-0.8,3.5
		s0.3,2.5,0.8,3.5c0.6,1,1.3,1.8,2.3,2.4s2.1,0.9,3.4,0.9s2.4-0.3,3.4-0.9s1.7-1.4,2.3-2.4c0.6-1,0.8-2.2,0.8-3.5s-0.3-2.5-0.8-3.5
		S257.9,251.2,256.9,250.6z"/>
	<path class="st1" d="M231,250.6c-1-0.6-2.1-0.9-3.4-0.9c-1.2,0-2.3,0.3-3.3,0.9s-1.8,1.4-2.4,2.4s-0.9,2.2-0.9,3.5s0.3,2.4,0.9,3.5
		c0.6,1,1.4,1.9,2.4,2.5s2.1,0.9,3.3,0.9c1.3,0,2.4-0.3,3.4-0.9s1.8-1.4,2.3-2.5c0.6-1,0.8-2.2,0.8-3.5s-0.3-2.5-0.8-3.5
		S232,251.2,231,250.6z"/>
	<path class="st1" d="M368.6,254.9c-0.1-0.8-0.3-1.6-0.7-2.2c-0.5-1-1.1-1.7-2-2.3c-0.9-0.6-1.9-0.8-3.1-0.8c-1.4,0-2.6,0.3-3.6,0.9
		s-1.7,1.4-2.3,2.5c-0.3,0.6-0.5,1.3-0.6,1.9H368.6L368.6,254.9z"/>
	<path class="st0" d="M235.9,238.1c-0.5,0-1,0.2-1.3,0.5c-0.3,0.3-0.5,0.8-0.5,1.3v9.8c-0.8-1-1.9-1.8-3.1-2.4
		c-1.2-0.6-2.6-0.9-4-0.9c-1.8,0-3.4,0.4-4.8,1.3c-1.4,0.9-2.5,2.1-3.4,3.6c-0.8,1.5-1.2,3.2-1.2,5.1s0.4,3.6,1.3,5.2
		c0.9,1.5,2.1,2.7,3.6,3.6c1.5,0.9,3.3,1.3,5.2,1.3c1.9,0,3.6-0.4,5.2-1.3c1.5-0.9,2.7-2.1,3.6-3.6s1.3-3.2,1.3-5.2V240
		c0-0.6-0.2-1-0.5-1.3C236.9,238.3,236.5,238.1,235.9,238.1z M233.3,260c-0.6,1-1.3,1.9-2.3,2.5s-2.1,0.9-3.4,0.9
		c-1.2,0-2.3-0.3-3.3-0.9s-1.8-1.4-2.4-2.5c-0.6-1-0.9-2.2-0.9-3.5s0.3-2.5,0.9-3.5s1.4-1.8,2.4-2.4s2.1-0.9,3.3-0.9
		c1.3,0,2.4,0.3,3.4,0.9s1.8,1.4,2.3,2.4c0.6,1,0.8,2.2,0.8,3.5C234.2,257.8,233.9,259,233.3,260z"/>
	<path class="st0" d="M258.8,247.8c-1.5-0.9-3.3-1.3-5.2-1.3c-2,0-3.7,0.4-5.3,1.3c-1.5,0.9-2.7,2-3.6,3.6c-0.9,1.5-1.3,3.3-1.3,5.2
		c0,2,0.4,3.7,1.3,5.2c0.9,1.5,2.1,2.7,3.6,3.6s3.3,1.3,5.3,1.3s3.7-0.4,5.3-1.3c1.5-0.9,2.7-2,3.6-3.6c0.9-1.5,1.3-3.2,1.3-5.2
		s-0.4-3.7-1.3-5.2C261.5,249.8,260.3,248.6,258.8,247.8z M259.2,260.1c-0.6,1-1.3,1.8-2.3,2.4s-2.1,0.9-3.4,0.9s-2.4-0.3-3.4-0.9
		s-1.8-1.4-2.3-2.4c-0.6-1-0.8-2.2-0.8-3.5c0-1.3,0.3-2.5,0.8-3.5c0.6-1,1.3-1.8,2.3-2.4c1-0.6,2.1-0.9,3.4-0.9s2.4,0.3,3.4,0.9
		c1,0.6,1.7,1.4,2.3,2.4c0.6,1,0.8,2.2,0.8,3.5C260.1,257.9,259.8,259.1,259.2,260.1z"/>
	<path class="st0" d="M282.2,247.3c-1.2-0.5-2.5-0.8-4-0.8c-1.9,0-3.7,0.4-5.2,1.3c-1.5,0.9-2.7,2.1-3.5,3.6
		c-0.9,1.5-1.3,3.3-1.3,5.2s0.4,3.6,1.3,5.1s2.1,2.7,3.6,3.6c1.5,0.9,3.3,1.3,5.2,1.3c2.7,0,4.9-0.8,6.6-2.4
		c0.3-0.3,0.5-0.7,0.4-1.1c0-0.4-0.3-0.8-0.7-1.1c-0.3-0.3-0.7-0.4-1.1-0.3c-0.4,0-0.8,0.2-1.2,0.5c-0.5,0.4-1.1,0.8-1.8,1
		c-0.7,0.2-1.4,0.3-2.3,0.3c-1.3,0-2.4-0.3-3.4-0.9s-1.7-1.4-2.3-2.4s-0.8-2.2-0.8-3.5c0-1.4,0.3-2.6,0.8-3.6s1.3-1.8,2.2-2.4
		c1-0.6,2.1-0.9,3.3-0.9c1.8,0,3.3,0.6,4.5,1.9c0.3,0.3,0.7,0.6,1.1,0.6c0.4,0.1,0.8,0,1.1-0.2c0.4-0.3,0.7-0.7,0.8-1.1
		s0-0.8-0.4-1.2C284.5,248.7,283.4,247.8,282.2,247.3z"/>
	<path class="st0" d="M299.5,255.2l6.8-5.9c0.4-0.3,0.6-0.7,0.6-1.2c0-0.4-0.1-0.8-0.5-1.2c-0.3-0.4-0.7-0.6-1.2-0.6
		s-0.9,0.1-1.2,0.5l-9,7.9v-14.8c0-0.5-0.2-1-0.5-1.3c-0.3-0.3-0.8-0.5-1.3-0.5s-1,0.2-1.3,0.5c-0.3,0.3-0.5,0.8-0.5,1.3v24.8
		c0,0.5,0.2,1,0.5,1.3c0.3,0.3,0.8,0.5,1.3,0.5s1-0.2,1.3-0.5s0.5-0.8,0.5-1.3v-5.5l1.8-1.6l7,8.5c0.3,0.4,0.7,0.6,1.2,0.6
		s0.9-0.1,1.3-0.4c0.4-0.3,0.6-0.7,0.7-1.2c0-0.4-0.1-0.9-0.4-1.3L299.5,255.2z"/>
	<path class="st0" d="M329,246.6c-0.5,0-1,0.2-1.3,0.5c-0.4,0.3-0.5,0.8-0.5,1.3v10.2c0,0.9-0.2,1.7-0.7,2.4s-1.1,1.3-2,1.7
		c-0.8,0.4-1.8,0.6-2.8,0.6c-1.1,0-2.1-0.2-3-0.6c-0.9-0.4-1.6-1.1-2.1-2c-0.5-0.9-0.8-2-0.8-3.4v-8.9c0-0.5-0.2-1-0.5-1.3
		c-0.4-0.4-0.8-0.5-1.3-0.5s-1,0.2-1.3,0.5c-0.4,0.4-0.5,0.8-0.5,1.3v8.9c0,2,0.4,3.7,1.2,5.1c0.8,1.4,1.8,2.4,3.2,3.1
		c1.3,0.7,2.9,1.1,4.5,1.1c1.6,0,3.1-0.4,4.4-1.1c0.7-0.4,1.3-0.8,1.9-1.4v0.4c0,0.5,0.2,1,0.5,1.3c0.4,0.4,0.8,0.5,1.3,0.5
		c0.6,0,1-0.2,1.4-0.5c0.3-0.4,0.5-0.8,0.5-1.3v-16.2c0-0.6-0.2-1-0.5-1.3C330,246.8,329.6,246.6,329,246.6z"/>
	<path class="st0" d="M350.7,247.1c-0.7-0.5-1.8-0.7-3.3-0.7s-2.8,0.3-4.1,1c-0.8,0.5-1.5,1-2.1,1.7v-0.7c0-0.6-0.2-1.1-0.5-1.4
		s-0.8-0.5-1.4-0.5c-0.6,0-1,0.2-1.4,0.5c-0.3,0.3-0.5,0.8-0.5,1.3v16.2c0,0.6,0.2,1.1,0.5,1.4c0.3,0.3,0.8,0.5,1.4,0.5
		c0.6,0,1.1-0.2,1.4-0.5c0.3-0.3,0.5-0.8,0.5-1.3V254c0-1.1,0.4-2,1.1-2.8c0.7-0.7,1.7-1.2,3-1.5c1.3-0.3,2.7-0.2,4.2,0.1
		c0.3,0.1,0.6,0.1,0.9,0c0.3,0,0.5-0.2,0.7-0.3c0.2-0.2,0.3-0.4,0.4-0.8C351.7,248.2,351.4,247.6,350.7,247.1z"/>
	<path class="st0" d="M371.5,257.4c0.3-0.3,0.5-0.7,0.5-1.1c0-1.9-0.4-3.6-1.1-5.1c-0.7-1.5-1.8-2.6-3.1-3.4c-1.4-0.8-3-1.3-4.9-1.3
		c-1.9,0-3.7,0.4-5.2,1.3c-1.5,0.9-2.7,2-3.5,3.6c-0.8,1.5-1.3,3.3-1.3,5.2c0,2,0.4,3.7,1.3,5.2c0.9,1.5,2.1,2.7,3.7,3.6
		c1.6,0.9,3.4,1.3,5.4,1.3c1.1,0,2.3-0.2,3.6-0.6c1.2-0.4,2.3-0.9,3.1-1.6c0.4-0.3,0.6-0.7,0.6-1.1s-0.2-0.8-0.7-1.2
		c-0.3-0.3-0.7-0.4-1.1-0.4c-0.4,0-0.8,0.2-1.2,0.4c-0.5,0.4-1.1,0.7-1.9,1c-0.8,0.3-1.6,0.4-2.3,0.4c-1.4,0-2.6-0.3-3.7-0.9
		c-1.1-0.6-1.9-1.4-2.5-2.5c-0.4-0.7-0.7-1.5-0.8-2.3h14C370.8,257.8,371.2,257.7,371.5,257.4z M359.3,250.5c1-0.6,2.2-0.9,3.6-0.9
		c1.2,0,2.3,0.3,3.1,0.8c0.9,0.6,1.5,1.3,2,2.3c0.3,0.7,0.5,1.4,0.7,2.2h-12.3c0.1-0.7,0.3-1.3,0.6-1.9
		C357.5,251.9,358.3,251.1,359.3,250.5z"/>
</g>
</svg>
