<?xml version="1.0" encoding="utf-8"?>
<!-- Generator: Adobe Illustrator 16.0.0, SVG Export Plug-In . SVG Version: 6.00 Build 0)  -->
<!DOCTYPE svg PUBLIC "-//W3C//DTD SVG 1.1//EN" "http://www.w3.org/Graphics/SVG/1.1/DTD/svg11.dtd">
<svg version="1.1" id="Layer_6" xmlns="http://www.w3.org/2000/svg" xmlns:xlink="http://www.w3.org/1999/xlink" x="0px" y="0px"
	 width="165.3px" height="151.6px" viewBox="9.2 17.4 165.3 151.6" style="enable-background:new 9.2 17.4 165.3 151.6;"
	 xml:space="preserve">
<style type="text/css">
<![CDATA[
	.st0{fill:#4E50A2;stroke:#4E50A2;stroke-miterlimit:10;}
	.st1{fill:none;stroke:#4E50A2;stroke-miterlimit:10;}
	.st2{fill:#4E50A2;stroke:#4E50A2;stroke-miterlimit:10;}
	.st3{fill:#4E50A2;}
	.st4{fill:none;stroke:#00175E;stroke-miterlimit:10;}
]]>
</style>
<g>
	<path class="st3" d="M150.7,66.5c-1.4-5.5-2-20.7-8.5-16.3c-5.4,3.7-7.9,11.7-6.1,22.8c-8.7,3.3-15.1,0.4-23.8-2.4
		c-9.4-2.9-15.6-4.6-23.6-5.1c-9.4-0.4-27.1-0.4-32.6,0c-23.6,1.4-36.9,13.3-37,31c-0.2,22.8,25.9,37.6,60.5,32.8
		c28.3-3.9,48.2-19.4,64.2-47.5c9.6,1,17.3-1.6,22.1-6.5C171.8,69.1,160.7,67.1,150.7,66.5z"/>
</g>
<rect x="64.3" y="45" class="st1" width="18.2" height="18.2"/>
<rect x="84.6" y="45" class="st1" width="18.2" height="18.2"/>
<g>
	<path class="st2" d="M73.4,49.3c0,3.2,0,6.4,0,9.6"/>
	<g>
		<path class="st2" d="M72.9,49.3c0,3.2,0,6.5,0,9.6c0,0.7,1.1,0.7,1.1,0c0-3.2,0-6.5,0-9.6C74,48.6,72.9,48.6,72.9,49.3L72.9,49.3z
			"/>
	</g>
</g>
<g>
	<path class="st2" d="M68.5,54.1c3.3,0,6.6,0,9.9,0"/>
	<g>
		<path class="st2" d="M68.5,54.7c3.3,0,6.6,0,9.9,0c0.7,0,0.7-1.1,0-1.1c-3.3,0-6.6,0-9.9,0C67.8,53.6,67.8,54.7,68.5,54.7
			L68.5,54.7z"/>
	</g>
</g>
<g>
	<path class="st2" d="M93.7,49.3c0,3.2,0,6.4,0,9.6"/>
	<g>
		<path class="st2" d="M93.2,49.3c0,3.2,0,6.5,0,9.6c0,0.7,1.1,0.7,1.1,0c0-3.2,0-6.5,0-9.6C94.3,48.6,93.2,48.6,93.2,49.3
			L93.2,49.3z"/>
	</g>
</g>
<g>
	<path class="st2" d="M88.7,54.1c3.3,0,6.6,0,9.9,0"/>
	<g>
		<path class="st2" d="M88.7,54.7c3.3,0,6.6,0,9.9,0c0.7,0,0.7-1.1,0-1.1c-3.3,0-6.6,0-9.9,0C88,53.6,88,54.7,88.7,54.7L88.7,54.7z"
			/>
	</g>
</g>
<rect x="44" y="45" class="st1" width="18.2" height="18.2"/>
<g>
	<path class="st2" d="M53.1,49.3c0,3.2,0,6.4,0,9.6"/>
	<g>
		<path class="st2" d="M52.6,49.3c0,3.2,0,6.5,0,9.6c0,0.7,1.1,0.7,1.1,0c0-3.2,0-6.5,0-9.6C53.6,48.6,52.6,48.6,52.6,49.3
			L52.6,49.3z"/>
	</g>
</g>
<g>
	<path class="st2" d="M48.1,54.1c3.3,0,6.6,0,9.9,0"/>
	<g>
		<path class="st2" d="M48.1,54.7c3.3,0,6.6,0,9.9,0c0.7,0,0.7-1.1,0-1.1c-3.3,0-6.6,0-9.9,0C47.4,53.6,47.4,54.7,48.1,54.7
			L48.1,54.7z"/>
	</g>
</g>
<rect x="54.2" y="24.7" class="st1" width="18.2" height="18.2"/>
<rect x="74.4" y="24.7" class="st1" width="18.2" height="18.2"/>
<g>
	<path class="st2" d="M63.3,29c0,3.2,0,6.4,0,9.6"/>
	<g>
		<path class="st2" d="M62.8,29c0,3.2,0,6.5,0,9.6c0,0.7,1.1,0.7,1.1,0c0-3.2,0-6.5,0-9.6C63.8,28.3,62.8,28.3,62.8,29L62.8,29z"/>
	</g>
</g>
<g>
	<path class="st2" d="M58.3,33.8c3.3,0,6.6,0,9.9,0"/>
	<g>
		<path class="st2" d="M58.3,34.4c3.3,0,6.6,0,9.9,0c0.7,0,0.7-1.1,0-1.1c-3.3,0-6.6,0-9.9,0C57.6,33.3,57.6,34.4,58.3,34.4
			L58.3,34.4z"/>
	</g>
</g>
<g>
	<path class="st2" d="M83.6,29c0,3.2,0,6.4,0,9.6"/>
	<g>
		<path class="st2" d="M83,29c0,3.2,0,6.5,0,9.6c0,0.7,1.1,0.7,1.1,0c0-3.2,0-6.5,0-9.6C84.2,28.3,83,28.3,83,29L83,29z"/>
	</g>
</g>
<g>
	<path class="st2" d="M78.6,33.8c3.3,0,6.6,0,9.9,0"/>
	<g>
		<path class="st2" d="M78.6,34.4c3.3,0,6.6,0,9.9,0c0.7,0,0.7-1.1,0-1.1c-3.3,0-6.6,0-9.9,0C77.9,33.3,77.9,34.4,78.6,34.4
			L78.6,34.4z"/>
	</g>
</g>
<path class="st4" d="M51.7,151.1c-1-0.6-2.2-0.9-3.6-0.9s-2.6,0.3-3.6,0.9c-1.1,0.7-1.9,1.5-2.5,2.6c-0.6,1.1-0.9,2.4-0.9,3.8
	s0.3,2.6,0.9,3.7c0.6,1,1.5,1.9,2.5,2.5c1,0.6,2.2,0.9,3.6,0.9s2.6-0.3,3.6-0.9c1-0.6,1.8-1.4,2.4-2.5c0.6-1,0.9-2.3,0.9-3.7
	c0-1.5-0.4-2.7-0.9-3.8C53.6,152.6,52.7,151.7,51.7,151.1z"/>
<path class="st4" d="M24.1,151.2c-1.1-0.6-2.3-0.9-3.6-0.9c-1.3,0-2.4,0.3-3.5,0.9c-1.1,0.7-1.9,1.5-2.5,2.6
	c-0.6,1.1-0.9,2.3-0.9,3.7s0.3,2.6,0.9,3.7c0.6,1.1,1.4,2,2.5,2.6c1,0.6,2.2,0.9,3.5,0.9c1.4,0,2.6-0.3,3.6-0.9
	c1.1-0.6,1.9-1.5,2.5-2.6c0.6-1.1,0.9-2.4,0.9-3.7c0-1.4-0.3-2.6-0.9-3.7S25.1,151.8,24.1,151.2z"/>
<path class="st4" d="M167.6,150.9c-0.9-0.6-2-0.9-3.3-0.9c-1.5,0-2.7,0.4-3.8,1c-1.1,0.7-1.9,1.6-2.4,2.6c-0.4,0.7-0.6,1.4-0.7,2.1
	h13c-0.1-0.9-0.3-1.7-0.7-2.4C169.2,152.3,168.5,151.5,167.6,150.9z"/>
<path class="st0" d="M29.3,137.9c-0.6,0-1.1,0.2-1.4,0.5c-0.4,0.4-0.6,0.8-0.6,1.4v10.4c-0.9-1.1-2-1.9-3.3-2.6
	c-1.3-0.6-2.7-0.9-4.3-0.9c-1.9,0-3.6,0.5-5.1,1.4s-2.7,2.2-3.6,3.8c-0.9,1.6-1.3,3.4-1.3,5.5c0,2.1,0.5,3.9,1.4,5.5
	c0.9,1.6,2.2,2.9,3.9,3.8c1.6,0.9,3.5,1.4,5.5,1.4s3.9-0.5,5.5-1.4c1.6-0.9,2.9-2.2,3.9-3.8c1-1.6,1.4-3.4,1.4-5.5v-17.6
	c0-0.6-0.2-1.1-0.5-1.4C30.4,138.1,29.9,137.9,29.3,137.9z M26.6,161.2c-0.6,1.1-1.4,2-2.5,2.6c-1,0.6-2.2,0.9-3.6,0.9
	c-1.3,0-2.5-0.3-3.5-0.9c-1.1-0.6-1.9-1.5-2.5-2.6c-0.6-1.1-0.9-2.3-0.9-3.7s0.3-2.6,0.9-3.7c0.6-1.1,1.4-1.9,2.5-2.6
	c1.1-0.6,2.2-0.9,3.5-0.9c1.3,0,2.5,0.3,3.6,0.9c1,0.6,1.9,1.5,2.5,2.6s0.9,2.3,0.9,3.7C27.5,158.8,27.2,160.1,26.6,161.2z"/>
<path class="st0" d="M53.6,148.1c-1.6-0.9-3.5-1.4-5.6-1.4c-2.1,0-4,0.5-5.6,1.4c-1.6,0.9-2.9,2.2-3.8,3.8c-0.9,1.6-1.4,3.5-1.4,5.6
	s0.5,3.9,1.4,5.5s2.2,2.9,3.8,3.8c1.6,0.9,3.5,1.4,5.6,1.4c2.1,0,4-0.5,5.6-1.4s2.9-2.2,3.8-3.8c0.9-1.6,1.4-3.5,1.4-5.5
	c0-2.1-0.5-4-1.4-5.6C56.5,150.3,55.3,149,53.6,148.1z M54.1,161.2c-0.6,1.1-1.4,1.9-2.4,2.5c-1,0.6-2.2,0.9-3.6,0.9
	s-2.6-0.3-3.6-0.9c-1-0.6-1.9-1.5-2.5-2.5c-0.6-1.1-0.9-2.3-0.9-3.7s0.3-2.7,0.9-3.8c0.6-1.1,1.4-1.9,2.5-2.6c1-0.6,2.2-0.9,3.6-0.9
	s2.6,0.3,3.6,0.9s1.9,1.5,2.4,2.6c0.5,1.1,0.9,2.3,0.9,3.8C55,158.9,54.7,160.2,54.1,161.2z"/>
<path class="st0" d="M78.5,147.6c-1.3-0.6-2.7-0.9-4.2-0.9c-2.1,0-3.9,0.5-5.5,1.4c-1.6,0.9-2.8,2.2-3.8,3.8
	c-0.9,1.6-1.4,3.5-1.4,5.6c0,2,0.5,3.9,1.4,5.5c0.9,1.6,2.2,2.9,3.8,3.8c1.6,0.9,3.5,1.4,5.6,1.4c2.8,0,5.2-0.9,7-2.6
	c0.4-0.4,0.5-0.8,0.5-1.2c-0.1-0.5-0.3-0.9-0.7-1.2c-0.3-0.3-0.7-0.4-1.2-0.4c-0.4,0-0.9,0.2-1.3,0.6c-0.6,0.5-1.2,0.8-1.9,1
	c-0.7,0.2-1.5,0.3-2.4,0.3c-1.4,0-2.6-0.3-3.6-0.9s-1.9-1.5-2.4-2.6c-0.6-1.1-0.9-2.3-0.9-3.7c0-1.5,0.3-2.7,0.9-3.8
	c0.6-1.1,1.4-1.9,2.4-2.5c1-0.6,2.2-0.9,3.5-0.9c1.9,0,3.5,0.7,4.8,2c0.4,0.4,0.8,0.6,1.2,0.7c0.4,0.1,0.8,0,1.2-0.3
	c0.5-0.3,0.8-0.7,0.9-1.2c0.1-0.4,0-0.9-0.4-1.3C81,149.1,79.8,148.2,78.5,147.6z"/>
<path class="st0" d="M96.9,156.1l7.2-6.3c0.4-0.4,0.6-0.8,0.6-1.2c0-0.5-0.1-0.9-0.5-1.3c-0.3-0.4-0.8-0.6-1.2-0.6
	c-0.5,0-0.9,0.1-1.3,0.5l-9.5,8.4v-15.7c0-0.6-0.2-1-0.5-1.4c-0.4-0.3-0.8-0.5-1.4-0.5c-0.6,0-1,0.2-1.4,0.5
	c-0.4,0.3-0.5,0.8-0.5,1.4v26.4c0,0.6,0.2,1,0.5,1.4c0.4,0.3,0.8,0.5,1.4,0.5c0.6,0,1-0.2,1.4-0.5c0.4-0.3,0.5-0.8,0.5-1.4v-5.9
	l1.9-1.7l7.5,9.1c0.3,0.4,0.8,0.6,1.3,0.7c0.5,0,1-0.1,1.4-0.4c0.4-0.4,0.7-0.8,0.7-1.3s-0.1-0.9-0.4-1.3L96.9,156.1z"/>
<path class="st0" d="M128.3,146.9c-0.6,0-1.1,0.2-1.4,0.5c-0.4,0.4-0.6,0.8-0.6,1.4v10.9c0,0.9-0.3,1.8-0.8,2.5
	c-0.5,0.7-1.2,1.3-2.1,1.8c-0.9,0.4-1.9,0.7-3,0.7c-1.2,0-2.2-0.2-3.2-0.7c-0.9-0.4-1.7-1.1-2.2-2.1c-0.5-0.9-0.8-2.1-0.8-3.6v-9.5
	c0-0.6-0.2-1-0.6-1.4c-0.4-0.4-0.9-0.6-1.4-0.6s-1.1,0.2-1.4,0.6c-0.4,0.4-0.6,0.8-0.6,1.4v9.5c0,2.1,0.4,3.9,1.2,5.4
	s1.9,2.6,3.4,3.3c1.4,0.8,3,1.1,4.8,1.1c1.7,0,3.3-0.4,4.7-1.1c0.7-0.4,1.4-0.9,2-1.5v0.4c0,0.6,0.2,1,0.6,1.4
	c0.4,0.4,0.9,0.6,1.4,0.6c0.6,0,1.1-0.2,1.4-0.6c0.4-0.4,0.5-0.8,0.5-1.4v-17.2c0-0.6-0.2-1.1-0.5-1.4
	C129.4,147.1,128.9,146.9,128.3,146.9z"/>
<path class="st0" d="M151.3,147.4c-0.8-0.5-1.9-0.8-3.5-0.8c-1.6,0-3,0.4-4.3,1.1c-0.9,0.5-1.6,1.1-2.3,1.8v-0.7
	c0-0.6-0.2-1.1-0.5-1.4c-0.3-0.3-0.8-0.5-1.5-0.5c-0.6,0-1.1,0.2-1.4,0.5c-0.3,0.3-0.5,0.8-0.5,1.4v17.3c0,0.6,0.2,1.1,0.5,1.4
	c0.3,0.3,0.8,0.5,1.4,0.5c0.7,0,1.1-0.2,1.5-0.5c0.3-0.3,0.5-0.8,0.5-1.4v-11.3c0-1.2,0.4-2.2,1.2-2.9c0.8-0.8,1.8-1.3,3.2-1.6
	c1.3-0.3,2.8-0.3,4.5,0.1c0.3,0.1,0.7,0.1,0.9,0c0.3-0.1,0.5-0.2,0.8-0.4c0.2-0.2,0.4-0.5,0.5-0.8
	C152.4,148.5,152.1,147.9,151.3,147.4z"/>
<path class="st0" d="M173.5,158.4c0.3-0.3,0.5-0.7,0.5-1.2c0-2-0.4-3.8-1.2-5.4s-1.9-2.8-3.3-3.7c-1.5-0.9-3.2-1.3-5.2-1.3
	c-2.1,0-3.9,0.5-5.5,1.4c-1.6,0.9-2.8,2.2-3.7,3.8s-1.4,3.5-1.4,5.6s0.5,3.9,1.4,5.5c1,1.6,2.3,2.9,4,3.8c1.7,0.9,3.6,1.4,5.8,1.4
	c1.2,0,2.5-0.2,3.8-0.7c1.3-0.4,2.4-1,3.3-1.7c0.4-0.3,0.7-0.7,0.6-1.2c0-0.5-0.3-0.9-0.7-1.3c-0.3-0.3-0.7-0.4-1.2-0.4
	s-0.9,0.2-1.3,0.4c-0.5,0.4-1.2,0.7-2.1,1c-0.8,0.3-1.7,0.4-2.5,0.4c-1.5,0-2.8-0.3-4-1c-1.1-0.6-2.1-1.5-2.7-2.6
	c-0.4-0.7-0.7-1.6-0.9-2.4h14.9C172.7,158.8,173.2,158.7,173.5,158.4z M157.4,155.7c0.1-0.7,0.3-1.4,0.7-2.1c0.5-1,1.3-1.9,2.4-2.6
	c1.1-0.6,2.3-1,3.8-1c1.3,0,2.4,0.3,3.3,0.9c0.9,0.6,1.6,1.4,2.1,2.4c0.4,0.7,0.6,1.5,0.7,2.4H157.4z"/>
</svg>
