<?xml version="1.0" encoding="utf-8"?>
<!-- Generator: Adobe Illustrator 16.0.0, SVG Export Plug-In . SVG Version: 6.00 Build 0)  -->
<!DOCTYPE svg PUBLIC "-//W3C//DTD SVG 1.1//EN" "http://www.w3.org/Graphics/SVG/1.1/DTD/svg11.dtd">
<svg version="1.1" id="Layer_6" xmlns="http://www.w3.org/2000/svg" xmlns:xlink="http://www.w3.org/1999/xlink" x="0px" y="0px"
	 width="164.8px" height="150.6px" viewBox="9.7 17.9 164.8 150.6" style="enable-background:new 9.7 17.9 164.8 150.6;"
	 xml:space="preserve">
<style type="text/css">
<![CDATA[
	.st0{fill:#4E50A2;}
	.st1{fill:#dbdbdb;}
	.st2{fill:none;}
	.st3{fill:#4E50A2;}
	.st4{fill:#3F6A8E;}
	.st5{fill:#4E50A2;}
]]>
</style>
<g>
	<path class="st5" d="M153.7,63.3c-1.5-5.9-2.1-21.9-9-17.3c-5.8,3.9-8.4,12.5-6.5,24.2c-9.2,3.5-16,0.5-25.3-2.5
		c-9.9-3.1-16.5-4.9-25.1-5.4c-9.9-0.5-28.7-0.4-34.6,0C28.2,63.8,14.1,76.4,14,95.2c-0.2,24.2,27.5,39.9,64.2,34.8
		c30-4.2,51.1-20.5,68.1-50.4c10.2,1,18.4-1.7,23.4-6.9C176.1,66.1,164.3,64,153.7,63.3z"/>
</g>
<rect x="61" y="41.6" class="st0" width="19.3" height="19.3"/>
<rect x="81.5" y="41.6" class="st0" width="19.3" height="19.3"/>
<g>
	<path class="st4" d="M70.6,46.1c0,3.4,0,6.8,0,10.2"/>
	<g>
		<path class="st1" d="M70.1,46.1c0,3.4,0,6.9,0,10.2c0,0.7,1.2,0.7,1.2,0c0-3.4,0-6.9,0-10.2C71.3,45.4,70.1,45.4,70.1,46.1
			L70.1,46.1z"/>
	</g>
</g>
<g>
	<path class="st4" d="M65.4,51.2c3.5,0,7,0,10.5,0"/>
	<g>
		<path class="st1" d="M65.4,51.8c3.5,0,7,0,10.5,0c0.7,0,0.7-1.2,0-1.2c-3.5,0-7,0-10.5,0C64.7,50.7,64.7,51.8,65.4,51.8L65.4,51.8
			z"/>
	</g>
</g>
<g>
	<path class="st4" d="M91.2,46.1c0,3.4,0,6.8,0,10.2"/>
	<g>
		<path class="st1" d="M90.6,46.1c0,3.4,0,6.9,0,10.2c0,0.7,1.2,0.7,1.2,0c0-3.4,0-6.9,0-10.2C91.7,45.4,90.6,45.4,90.6,46.1
			L90.6,46.1z"/>
	</g>
</g>
<g>
	<path class="st4" d="M85.9,51.2c3.5,0,7,0,10.5,0"/>
	<g>
		<path class="st1" d="M85.9,51.8c3.5,0,7,0,10.5,0c0.7,0,0.7-1.2,0-1.2c-3.5,0-7,0-10.5,0C85.1,50.7,85.1,51.8,85.9,51.8L85.9,51.8
			z"/>
	</g>
</g>
<rect x="40.4" y="41.6" class="st0" width="19.3" height="19.3"/>
<g>
	<path class="st4" d="M50.1,46.1c0,3.4,0,6.8,0,10.2"/>
	<g>
		<path class="st1" d="M49.5,46.1c0,3.4,0,6.9,0,10.2c0,0.7,1.2,0.7,1.2,0c0-3.4,0-6.9,0-10.2C50.7,45.4,49.5,45.4,49.5,46.1
			L49.5,46.1z"/>
	</g>
</g>
<g>
	<path class="st4" d="M44.8,51.2c3.5,0,7,0,10.5,0"/>
	<g>
		<path class="st1" d="M44.8,51.8c3.5,0,7,0,10.5,0c0.7,0,0.7-1.2,0-1.2c-3.5,0-7,0-10.5,0C44.1,50.7,44.1,51.8,44.8,51.8L44.8,51.8
			z"/>
	</g>
</g>
<rect x="50.8" y="20.9" class="st0" width="19.3" height="19.3"/>
<rect x="71.3" y="20.9" class="st0" width="19.3" height="19.3"/>
<g>
	<path class="st4" d="M60.5,25.5c0,3.4,0,6.8,0,10.2"/>
	<g>
		<path class="st1" d="M60,25.5c0,3.4,0,6.9,0,10.2c0,0.7,1.2,0.7,1.2,0c0-3.4,0-6.9,0-10.2C61.1,24.7,60,24.7,60,25.5L60,25.5z"/>
	</g>
</g>
<g>
	<path class="st4" d="M55.2,30.6c3.5,0,7,0,10.5,0"/>
	<g>
		<path class="st1" d="M55.2,31.2c3.5,0,7,0,10.5,0c0.7,0,0.7-1.2,0-1.2c-3.5,0-7,0-10.5,0C54.5,30,54.5,31.2,55.2,31.2L55.2,31.2z"
			/>
	</g>
</g>
<g>
	<path class="st4" d="M81,25.5c0,3.4,0,6.8,0,10.2"/>
	<g>
		<path class="st1" d="M80.4,25.5c0,3.4,0,6.9,0,10.2c0,0.7,1.2,0.7,1.2,0c0-3.4,0-6.9,0-10.2C81.6,24.7,80.4,24.7,80.4,25.5
			L80.4,25.5z"/>
	</g>
</g>
<g>
	<path class="st4" d="M75.8,30.6c3.5,0,7,0,10.5,0"/>
	<g>
		<path class="st1" d="M75.8,31.2c3.5,0,7,0,10.5,0c0.7,0,0.7-1.2,0-1.2c-3.5,0-7,0-10.5,0C75,30,75,31.2,75.8,31.2L75.8,31.2z"/>
	</g>
</g>
<g>
	<path class="st2" d="M51.7,151.1c-1-0.6-2.2-0.9-3.6-0.9s-2.6,0.3-3.6,0.9c-1.1,0.7-1.9,1.5-2.5,2.6c-0.6,1.1-0.9,2.4-0.9,3.8
		s0.3,2.6,0.9,3.7c0.6,1,1.5,1.9,2.5,2.5c1,0.6,2.2,0.9,3.6,0.9s2.6-0.3,3.6-0.9c1-0.6,1.8-1.4,2.4-2.5c0.6-1,0.9-2.3,0.9-3.7
		c0-1.5-0.4-2.7-0.9-3.8C53.6,152.6,52.7,151.7,51.7,151.1z"/>
	<path class="st2" d="M24.1,151.2c-1.1-0.6-2.3-0.9-3.6-0.9c-1.3,0-2.4,0.3-3.5,0.9c-1.1,0.7-1.9,1.5-2.5,2.6
		c-0.6,1.1-0.9,2.3-0.9,3.7s0.3,2.6,0.9,3.7c0.6,1.1,1.4,2,2.5,2.6c1,0.6,2.2,0.9,3.5,0.9c1.4,0,2.6-0.3,3.6-0.9
		c1.1-0.6,1.9-1.5,2.5-2.6c0.6-1.1,0.9-2.4,0.9-3.7c0-1.4-0.3-2.6-0.9-3.7S25.1,151.8,24.1,151.2z"/>
	<path class="st2" d="M167.6,150.9c-0.9-0.6-2-0.9-3.3-0.9c-1.5,0-2.7,0.4-3.8,1c-1.1,0.7-1.9,1.6-2.4,2.6c-0.4,0.7-0.6,1.4-0.7,2.1
		h13c-0.1-0.9-0.3-1.7-0.7-2.4C169.2,152.3,168.5,151.5,167.6,150.9z"/>
	<path class="st3" d="M29.3,137.9c-0.6,0-1.1,0.2-1.4,0.5c-0.4,0.4-0.6,0.8-0.6,1.4v10.4c-0.9-1.1-2-1.9-3.3-2.6
		c-1.3-0.6-2.7-0.9-4.3-0.9c-1.9,0-3.6,0.5-5.1,1.4s-2.7,2.2-3.6,3.8c-0.9,1.6-1.3,3.4-1.3,5.5c0,2.1,0.5,3.9,1.4,5.5
		c0.9,1.6,2.2,2.9,3.9,3.8c1.6,0.9,3.5,1.4,5.5,1.4s3.9-0.5,5.5-1.4c1.6-0.9,2.9-2.2,3.9-3.8c1-1.6,1.4-3.4,1.4-5.5v-17.6
		c0-0.6-0.2-1.1-0.5-1.4C30.4,138.1,29.9,137.9,29.3,137.9z M26.6,161.2c-0.6,1.1-1.4,2-2.5,2.6c-1,0.6-2.2,0.9-3.6,0.9
		c-1.3,0-2.5-0.3-3.5-0.9c-1.1-0.6-1.9-1.5-2.5-2.6c-0.6-1.1-0.9-2.3-0.9-3.7s0.3-2.6,0.9-3.7c0.6-1.1,1.4-1.9,2.5-2.6
		c1.1-0.6,2.2-0.9,3.5-0.9c1.3,0,2.5,0.3,3.6,0.9c1,0.6,1.9,1.5,2.5,2.6s0.9,2.3,0.9,3.7C27.5,158.8,27.2,160.1,26.6,161.2z"/>
	<path class="st3" d="M53.6,148.1c-1.6-0.9-3.5-1.4-5.6-1.4c-2.1,0-4,0.5-5.6,1.4c-1.6,0.9-2.9,2.2-3.8,3.8
		c-0.9,1.6-1.4,3.5-1.4,5.6s0.5,3.9,1.4,5.5s2.2,2.9,3.8,3.8c1.6,0.9,3.5,1.4,5.6,1.4c2.1,0,4-0.5,5.6-1.4s2.9-2.2,3.8-3.8
		c0.9-1.6,1.4-3.5,1.4-5.5c0-2.1-0.5-4-1.4-5.6C56.5,150.3,55.3,149,53.6,148.1z M54.1,161.2c-0.6,1.1-1.4,1.9-2.4,2.5
		c-1,0.6-2.2,0.9-3.6,0.9s-2.6-0.3-3.6-0.9c-1-0.6-1.9-1.5-2.5-2.5c-0.6-1.1-0.9-2.3-0.9-3.7s0.3-2.7,0.9-3.8
		c0.6-1.1,1.4-1.9,2.5-2.6c1-0.6,2.2-0.9,3.6-0.9s2.6,0.3,3.6,0.9s1.9,1.5,2.4,2.6c0.5,1.1,0.9,2.3,0.9,3.8
		C55,158.9,54.7,160.2,54.1,161.2z"/>
	<path class="st3" d="M78.5,147.6c-1.3-0.6-2.7-0.9-4.2-0.9c-2.1,0-3.9,0.5-5.5,1.4c-1.6,0.9-2.8,2.2-3.8,3.8
		c-0.9,1.6-1.4,3.5-1.4,5.6c0,2,0.5,3.9,1.4,5.5c0.9,1.6,2.2,2.9,3.8,3.8c1.6,0.9,3.5,1.4,5.6,1.4c2.8,0,5.2-0.9,7-2.6
		c0.4-0.4,0.5-0.8,0.5-1.2c-0.1-0.5-0.3-0.9-0.7-1.2c-0.3-0.3-0.7-0.4-1.2-0.4c-0.4,0-0.9,0.2-1.3,0.6c-0.6,0.5-1.2,0.8-1.9,1
		c-0.7,0.2-1.5,0.3-2.4,0.3c-1.4,0-2.6-0.3-3.6-0.9s-1.9-1.5-2.4-2.6c-0.6-1.1-0.9-2.3-0.9-3.7c0-1.5,0.3-2.7,0.9-3.8
		c0.6-1.1,1.4-1.9,2.4-2.5c1-0.6,2.2-0.9,3.5-0.9c1.9,0,3.5,0.7,4.8,2c0.4,0.4,0.8,0.6,1.2,0.7c0.4,0.1,0.8,0,1.2-0.3
		c0.5-0.3,0.8-0.7,0.9-1.2c0.1-0.4,0-0.9-0.4-1.3C81,149.1,79.8,148.2,78.5,147.6z"/>
	<path class="st3" d="M96.9,156.1l7.2-6.3c0.4-0.4,0.6-0.8,0.6-1.2c0-0.5-0.1-0.9-0.5-1.3c-0.3-0.4-0.8-0.6-1.2-0.6
		c-0.5,0-0.9,0.1-1.3,0.5l-9.5,8.4v-15.7c0-0.6-0.2-1-0.5-1.4c-0.4-0.3-0.8-0.5-1.4-0.5c-0.6,0-1,0.2-1.4,0.5
		c-0.4,0.3-0.5,0.8-0.5,1.4v26.4c0,0.6,0.2,1,0.5,1.4c0.4,0.3,0.8,0.5,1.4,0.5c0.6,0,1-0.2,1.4-0.5c0.4-0.3,0.5-0.8,0.5-1.4v-5.9
		l1.9-1.7l7.5,9.1c0.3,0.4,0.8,0.6,1.3,0.7c0.5,0,1-0.1,1.4-0.4c0.4-0.4,0.7-0.8,0.7-1.3s-0.1-0.9-0.4-1.3L96.9,156.1z"/>
	<path class="st3" d="M128.3,146.9c-0.6,0-1.1,0.2-1.4,0.5c-0.4,0.4-0.6,0.8-0.6,1.4v10.9c0,0.9-0.3,1.8-0.8,2.5
		c-0.5,0.7-1.2,1.3-2.1,1.8c-0.9,0.4-1.9,0.7-3,0.7c-1.2,0-2.2-0.2-3.2-0.7c-0.9-0.4-1.7-1.1-2.2-2.1c-0.5-0.9-0.8-2.1-0.8-3.6v-9.5
		c0-0.6-0.2-1-0.6-1.4c-0.4-0.4-0.9-0.6-1.4-0.6s-1.1,0.2-1.4,0.6c-0.4,0.4-0.6,0.8-0.6,1.4v9.5c0,2.1,0.4,3.9,1.2,5.4
		s1.9,2.6,3.4,3.3c1.4,0.8,3,1.1,4.8,1.1c1.7,0,3.3-0.4,4.7-1.1c0.7-0.4,1.4-0.9,2-1.5v0.4c0,0.6,0.2,1,0.6,1.4
		c0.4,0.4,0.9,0.6,1.4,0.6c0.6,0,1.1-0.2,1.4-0.6c0.4-0.4,0.5-0.8,0.5-1.4v-17.2c0-0.6-0.2-1.1-0.5-1.4
		C129.4,147.1,128.9,146.9,128.3,146.9z"/>
	<path class="st3" d="M151.3,147.4c-0.8-0.5-1.9-0.8-3.5-0.8c-1.6,0-3,0.4-4.3,1.1c-0.9,0.5-1.6,1.1-2.3,1.8v-0.7
		c0-0.6-0.2-1.1-0.5-1.4c-0.3-0.3-0.8-0.5-1.5-0.5c-0.6,0-1.1,0.2-1.4,0.5c-0.3,0.3-0.5,0.8-0.5,1.4v17.3c0,0.6,0.2,1.1,0.5,1.4
		c0.3,0.3,0.8,0.5,1.4,0.5c0.7,0,1.1-0.2,1.5-0.5c0.3-0.3,0.5-0.8,0.5-1.4v-11.3c0-1.2,0.4-2.2,1.2-2.9c0.8-0.8,1.8-1.3,3.2-1.6
		c1.3-0.3,2.8-0.3,4.5,0.1c0.3,0.1,0.7,0.1,0.9,0c0.3-0.1,0.5-0.2,0.8-0.4c0.2-0.2,0.4-0.5,0.5-0.8
		C152.4,148.5,152.1,147.9,151.3,147.4z"/>
	<path class="st3" d="M173.5,158.4c0.3-0.3,0.5-0.7,0.5-1.2c0-2-0.4-3.8-1.2-5.4s-1.9-2.8-3.3-3.7c-1.5-0.9-3.2-1.3-5.2-1.3
		c-2.1,0-3.9,0.5-5.5,1.4c-1.6,0.9-2.8,2.2-3.7,3.8s-1.4,3.5-1.4,5.6s0.5,3.9,1.4,5.5c1,1.6,2.3,2.9,4,3.8c1.7,0.9,3.6,1.4,5.8,1.4
		c1.2,0,2.5-0.2,3.8-0.7c1.3-0.4,2.4-1,3.3-1.7c0.4-0.3,0.7-0.7,0.6-1.2c0-0.5-0.3-0.9-0.7-1.3c-0.3-0.3-0.7-0.4-1.2-0.4
		s-0.9,0.2-1.3,0.4c-0.5,0.4-1.2,0.7-2.1,1c-0.8,0.3-1.7,0.4-2.5,0.4c-1.5,0-2.8-0.3-4-1c-1.1-0.6-2.1-1.5-2.7-2.6
		c-0.4-0.7-0.7-1.6-0.9-2.4h14.9C172.7,158.8,173.2,158.7,173.5,158.4z M157.4,155.7c0.1-0.7,0.3-1.4,0.7-2.1c0.5-1,1.3-1.9,2.4-2.6
		c1.1-0.6,2.3-1,3.8-1c1.3,0,2.4,0.3,3.3,0.9c0.9,0.6,1.6,1.4,2.1,2.4c0.4,0.7,0.6,1.5,0.7,2.4H157.4z"/>
</g>
</svg>
