<?xml version="1.0" encoding="utf-8"?>
<!-- Generator: Adobe Illustrator 16.0.0, SVG Export Plug-In . SVG Version: 6.00 Build 0)  -->
<!DOCTYPE svg PUBLIC "-//W3C//DTD SVG 1.1//EN" "http://www.w3.org/Graphics/SVG/1.1/DTD/svg11.dtd">
<svg version="1.1" id="Layer_6" xmlns="http://www.w3.org/2000/svg" xmlns:xlink="http://www.w3.org/1999/xlink" x="0px" y="0px"
	 width="184px" height="174.8px" viewBox="207.5 174.8 184 174.8" style="enable-background:new 207.5 174.8 184 174.8;"
	 xml:space="preserve">
<style type="text/css">
<![CDATA[
	.st0{fill:#FFFFFF;}
	.st1{fill:#FFFFFF;}
	.st2{fill:#202631;}
	.st3{fill:none;}
	.st4{fill:#3F6A8E;}
]]>
</style>
<g>
	<path class="st1" d="M365.5,224.2c-1.6-6.3-2.3-23.6-9.7-18.6c-6.2,4.2-9,13.4-7,26c-9.9,3.8-17.2,0.5-27.2-2.7
		c-10.7-3.3-17.8-5.3-27-5.8c-10.7-0.5-30.9-0.4-37.2,0c-27,1.6-42.1,15.2-42.3,35.4c-0.2,26,29.6,42.9,69.1,37.4
		c32.3-4.5,55-22.1,73.3-54.2c11,1.1,19.8-1.8,25.2-7.4C389.6,227.2,376.9,224.9,365.5,224.2z"/>
</g>
<rect x="265.7" y="200.8" class="st1" width="20.8" height="20.8"/>
<rect x="287.8" y="200.8" class="st1" width="20.8" height="20.8"/>
<g>
	<path class="st4" d="M276.1,205.7c0,3.7,0,7.3,0,11"/>
	<g>
		<path class="st2" d="M275.5,205.7c0,3.7,0,7.4,0,11c0,0.8,1.3,0.8,1.3,0c0-3.7,0-7.4,0-11C276.8,204.9,275.5,204.9,275.5,205.7
			L275.5,205.7z"/>
	</g>
</g>
<g>
	<path class="st4" d="M270.5,211.2c3.8,0,7.5,0,11.3,0"/>
	<g>
		<path class="st2" d="M270.5,211.8c3.8,0,7.5,0,11.3,0c0.8,0,0.8-1.3,0-1.3c-3.8,0-7.5,0-11.3,0
			C269.7,210.6,269.7,211.8,270.5,211.8L270.5,211.8z"/>
	</g>
</g>
<g>
	<path class="st4" d="M298.2,205.7c0,3.7,0,7.3,0,11"/>
	<g>
		<path class="st2" d="M297.6,205.7c0,3.7,0,7.4,0,11c0,0.8,1.3,0.8,1.3,0c0-3.7,0-7.4,0-11C298.8,204.9,297.6,204.9,297.6,205.7
			L297.6,205.7z"/>
	</g>
</g>
<g>
	<path class="st4" d="M292.5,211.2c3.8,0,7.5,0,11.3,0"/>
	<g>
		<path class="st2" d="M292.5,211.8c3.8,0,7.5,0,11.3,0c0.8,0,0.8-1.3,0-1.3c-3.8,0-7.5,0-11.3,0
			C291.7,210.6,291.7,211.8,292.5,211.8L292.5,211.8z"/>
	</g>
</g>
<rect x="243.6" y="200.8" class="st1" width="20.8" height="20.8"/>
<g>
	<path class="st4" d="M254,205.7c0,3.7,0,7.3,0,11"/>
	<g>
		<path class="st2" d="M253.4,205.7c0,3.7,0,7.4,0,11c0,0.8,1.3,0.8,1.3,0c0-3.7,0-7.4,0-11C254.6,204.9,253.4,204.9,253.4,205.7
			L253.4,205.7z"/>
	</g>
</g>
<g>
	<path class="st4" d="M248.3,211.2c3.8,0,7.5,0,11.3,0"/>
	<g>
		<path class="st2" d="M248.3,211.8c3.8,0,7.5,0,11.3,0c0.8,0,0.8-1.3,0-1.3c-3.8,0-7.5,0-11.3,0
			C247.5,210.6,247.5,211.8,248.3,211.8L248.3,211.8z"/>
	</g>
</g>
<rect x="254.8" y="178.6" class="st1" width="20.8" height="20.8"/>
<rect x="276.8" y="178.6" class="st1" width="20.8" height="20.8"/>
<g>
	<path class="st4" d="M265.2,183.5c0,3.7,0,7.3,0,11"/>
	<g>
		<path class="st2" d="M264.6,183.5c0,3.7,0,7.4,0,11c0,0.8,1.3,0.8,1.3,0c0-3.7,0-7.4,0-11C265.8,182.7,264.6,182.7,264.6,183.5
			L264.6,183.5z"/>
	</g>
</g>
<g>
	<path class="st4" d="M259.5,189c3.8,0,7.5,0,11.3,0"/>
	<g>
		<path class="st2" d="M259.5,189.7c3.8,0,7.5,0,11.3,0c0.8,0,0.8-1.3,0-1.3c-3.8,0-7.5,0-11.3,0
			C258.7,188.4,258.7,189.7,259.5,189.7L259.5,189.7z"/>
	</g>
</g>
<g>
	<path class="st4" d="M287.2,183.5c0,3.7,0,7.3,0,11"/>
	<g>
		<path class="st2" d="M286.6,183.5c0,3.7,0,7.4,0,11c0,0.8,1.3,0.8,1.3,0c0-3.7,0-7.4,0-11C287.9,182.7,286.6,182.7,286.6,183.5
			L286.6,183.5z"/>
	</g>
</g>
<g>
	<path class="st4" d="M281.6,189c3.8,0,7.5,0,11.3,0"/>
	<g>
		<path class="st2" d="M281.6,189.7c3.8,0,7.5,0,11.3,0c0.8,0,0.8-1.3,0-1.3c-3.8,0-7.5,0-11.3,0
			C280.8,188.4,280.8,189.7,281.6,189.7L281.6,189.7z"/>
	</g>
</g>
<g>
	<path class="st3" d="M259.6,323.5c-1-0.6-2.2-0.9-3.6-0.9s-2.6,0.3-3.6,0.9s-1.9,1.5-2.5,2.6s-0.9,2.3-0.9,3.8
		c0,1.4,0.3,2.7,0.9,3.7c0.6,1.1,1.4,1.9,2.5,2.5c1,0.6,2.2,0.9,3.6,0.9s2.6-0.3,3.6-0.9s1.9-1.5,2.4-2.5c0.6-1.1,0.9-2.3,0.9-3.7
		s-0.3-2.7-0.9-3.8S260.6,324.1,259.6,323.5z"/>
	<path class="st3" d="M232,323.5c-1-0.6-2.2-0.9-3.6-0.9c-1.3,0-2.5,0.3-3.5,0.9c-1.1,0.6-1.9,1.5-2.5,2.6s-0.9,2.3-0.9,3.7
		c0,1.4,0.3,2.6,0.9,3.7s1.4,2,2.5,2.6s2.2,0.9,3.5,0.9c1.3,0,2.5-0.3,3.6-0.9c1-0.6,1.9-1.5,2.5-2.6s0.9-2.3,0.9-3.7
		c0-1.4-0.3-2.6-0.9-3.7S233,324.1,232,323.5z"/>
	<path class="st3" d="M378.3,328.1c-0.1-0.9-0.3-1.7-0.7-2.4c-0.5-1-1.2-1.8-2.1-2.4c-0.9-0.6-2-0.9-3.3-0.9c-1.5,0-2.8,0.3-3.8,1
		c-1.1,0.6-1.9,1.5-2.4,2.6c-0.3,0.6-0.5,1.3-0.7,2.1H378.3L378.3,328.1z"/>
	<path class="st0" d="M237.2,310.2c-0.6,0-1.1,0.2-1.4,0.5c-0.4,0.4-0.6,0.8-0.6,1.4v10.4c-0.9-1.1-2-1.9-3.3-2.6
		c-1.3-0.6-2.7-0.9-4.3-0.9c-1.9,0-3.6,0.5-5.1,1.4s-2.7,2.2-3.6,3.8c-0.9,1.6-1.3,3.4-1.3,5.5c0,2.1,0.5,3.9,1.4,5.5
		c0.9,1.6,2.2,2.9,3.9,3.8c1.6,0.9,3.5,1.4,5.5,1.4s3.9-0.5,5.5-1.4s2.9-2.2,3.9-3.8c1-1.6,1.4-3.4,1.4-5.5v-17.6
		c0-0.6-0.2-1.1-0.5-1.4C238.3,310.4,237.8,310.2,237.2,310.2z M234.5,333.5c-0.6,1.1-1.4,2-2.5,2.6c-1,0.6-2.2,0.9-3.6,0.9
		c-1.3,0-2.5-0.3-3.5-0.9c-1.1-0.6-1.9-1.5-2.5-2.6s-0.9-2.3-0.9-3.7c0-1.4,0.3-2.6,0.9-3.7s1.4-1.9,2.5-2.6
		c1.1-0.6,2.2-0.9,3.5-0.9c1.3,0,2.5,0.3,3.6,0.9c1,0.6,1.9,1.5,2.5,2.6s0.9,2.3,0.9,3.7C235.4,331.1,235.1,332.4,234.5,333.5z"/>
	<path class="st0" d="M261.5,320.4c-1.6-0.9-3.5-1.4-5.6-1.4s-4,0.5-5.6,1.4c-1.6,0.9-2.9,2.2-3.8,3.8c-0.9,1.6-1.4,3.5-1.4,5.6
		c0,2.1,0.5,3.9,1.4,5.5c0.9,1.6,2.2,2.9,3.8,3.8c1.6,0.9,3.5,1.4,5.6,1.4s4-0.5,5.6-1.4s2.9-2.2,3.8-3.8c0.9-1.6,1.4-3.5,1.4-5.5
		c0-2.1-0.5-4-1.4-5.6C264.4,322.6,263.2,321.3,261.5,320.4z M262,333.5c-0.6,1.1-1.4,1.9-2.4,2.5s-2.2,0.9-3.6,0.9
		s-2.6-0.3-3.6-0.9s-1.9-1.5-2.5-2.5c-0.6-1.1-0.9-2.3-0.9-3.7c0-1.4,0.3-2.7,0.9-3.8s1.4-1.9,2.5-2.6c1-0.6,2.2-0.9,3.6-0.9
		s2.6,0.3,3.6,0.9s1.9,1.5,2.4,2.6s0.9,2.3,0.9,3.8C262.9,331.2,262.6,332.5,262,333.5z"/>
	<path class="st0" d="M286.4,319.9c-1.3-0.6-2.7-0.9-4.2-0.9c-2.1,0-3.9,0.5-5.5,1.4c-1.6,0.9-2.8,2.2-3.8,3.8
		c-0.9,1.6-1.4,3.5-1.4,5.6c0,2,0.5,3.9,1.4,5.5c0.9,1.6,2.2,2.9,3.8,3.8c1.6,0.9,3.5,1.4,5.6,1.4c2.8,0,5.2-0.9,7-2.6
		c0.4-0.4,0.5-0.8,0.5-1.2c-0.1-0.5-0.3-0.9-0.7-1.2c-0.3-0.3-0.7-0.4-1.2-0.4c-0.4,0-0.9,0.2-1.3,0.6c-0.6,0.5-1.2,0.8-1.9,1
		c-0.7,0.2-1.5,0.3-2.4,0.3c-1.4,0-2.6-0.3-3.6-0.9s-1.9-1.5-2.4-2.6c-0.6-1.1-0.9-2.3-0.9-3.7c0-1.5,0.3-2.7,0.9-3.8
		c0.6-1.1,1.4-1.9,2.4-2.5s2.2-0.9,3.5-0.9c1.9,0,3.5,0.7,4.8,2c0.4,0.4,0.8,0.6,1.2,0.7c0.4,0.1,0.8,0,1.2-0.3
		c0.5-0.3,0.8-0.7,0.9-1.2c0.1-0.4,0-0.9-0.4-1.3C288.9,321.4,287.7,320.5,286.4,319.9z"/>
	<path class="st0" d="M304.8,328.4l7.2-6.3c0.4-0.4,0.6-0.8,0.6-1.2c0-0.5-0.1-0.9-0.5-1.3c-0.3-0.4-0.8-0.6-1.2-0.6
		c-0.5,0-0.9,0.1-1.3,0.5l-9.5,8.4v-15.7c0-0.6-0.2-1-0.5-1.4c-0.4-0.3-0.8-0.5-1.4-0.5c-0.6,0-1,0.2-1.4,0.5
		c-0.4,0.3-0.5,0.8-0.5,1.4v26.4c0,0.6,0.2,1,0.5,1.4c0.4,0.3,0.8,0.5,1.4,0.5c0.6,0,1-0.2,1.4-0.5c0.4-0.3,0.5-0.8,0.5-1.4v-5.9
		l1.9-1.7l7.5,9.1c0.3,0.4,0.8,0.6,1.3,0.7c0.5,0,1-0.1,1.4-0.4c0.4-0.4,0.7-0.8,0.7-1.3s-0.1-0.9-0.4-1.3L304.8,328.4z"/>
	<path class="st0" d="M336.2,319.2c-0.6,0-1.1,0.2-1.4,0.5c-0.4,0.4-0.6,0.8-0.6,1.4V332c0,0.9-0.3,1.8-0.8,2.5s-1.2,1.3-2.1,1.8
		c-0.9,0.4-1.9,0.7-3,0.7c-1.2,0-2.2-0.2-3.2-0.7c-0.9-0.4-1.7-1.1-2.2-2.1c-0.5-0.9-0.8-2.1-0.8-3.6v-9.5c0-0.6-0.2-1-0.6-1.4
		c-0.4-0.4-0.9-0.6-1.4-0.6s-1.1,0.2-1.4,0.6c-0.4,0.4-0.6,0.8-0.6,1.4v9.5c0,2.1,0.4,3.9,1.2,5.4s1.9,2.6,3.4,3.3
		c1.4,0.8,3,1.1,4.8,1.1c1.7,0,3.3-0.4,4.7-1.1c0.7-0.4,1.4-0.9,2-1.5v0.4c0,0.6,0.2,1,0.6,1.4c0.4,0.4,0.9,0.6,1.4,0.6
		c0.6,0,1.1-0.2,1.4-0.6c0.4-0.4,0.5-0.8,0.5-1.4V321c0-0.6-0.2-1.1-0.5-1.4C337.3,319.4,336.8,319.2,336.2,319.2z"/>
	<path class="st0" d="M359.2,319.7c-0.8-0.5-1.9-0.8-3.5-0.8c-1.6,0-3,0.4-4.3,1.1c-0.9,0.5-1.6,1.1-2.3,1.8v-0.7
		c0-0.6-0.2-1.1-0.5-1.4c-0.3-0.3-0.8-0.5-1.5-0.5c-0.6,0-1.1,0.2-1.4,0.5c-0.3,0.3-0.5,0.8-0.5,1.4v17.3c0,0.6,0.2,1.1,0.5,1.4
		c0.3,0.3,0.8,0.5,1.4,0.5c0.7,0,1.1-0.2,1.5-0.5c0.3-0.3,0.5-0.8,0.5-1.4v-11.3c0-1.2,0.4-2.2,1.2-2.9c0.8-0.8,1.8-1.3,3.2-1.6
		c1.3-0.3,2.8-0.3,4.5,0.1c0.3,0.1,0.7,0.1,0.9,0c0.3-0.1,0.5-0.2,0.8-0.4c0.2-0.2,0.4-0.5,0.5-0.8
		C360.3,320.8,360,320.2,359.2,319.7z"/>
	<path class="st0" d="M381.4,330.7c0.3-0.3,0.5-0.7,0.5-1.2c0-2-0.4-3.8-1.2-5.4s-1.9-2.8-3.3-3.7c-1.5-0.9-3.2-1.3-5.2-1.3
		c-2.1,0-3.9,0.5-5.5,1.4c-1.6,0.9-2.8,2.2-3.7,3.8c-0.9,1.6-1.4,3.5-1.4,5.6s0.5,3.9,1.4,5.5c1,1.6,2.3,2.9,4,3.8
		c1.7,0.9,3.6,1.4,5.8,1.4c1.2,0,2.5-0.2,3.8-0.7c1.3-0.4,2.4-1,3.3-1.7c0.4-0.3,0.7-0.7,0.6-1.2c0-0.5-0.3-0.9-0.7-1.3
		c-0.3-0.3-0.7-0.4-1.2-0.4s-0.9,0.2-1.3,0.4c-0.5,0.4-1.2,0.7-2.1,1c-0.8,0.3-1.7,0.4-2.5,0.4c-1.5,0-2.8-0.3-4-1
		c-1.1-0.6-2.1-1.5-2.7-2.6c-0.4-0.7-0.7-1.6-0.9-2.4H380C380.6,331.1,381.1,331,381.4,330.7z M368.4,323.3c1.1-0.6,2.3-1,3.8-1
		c1.3,0,2.4,0.3,3.3,0.9c0.9,0.6,1.6,1.4,2.1,2.4c0.4,0.7,0.6,1.5,0.7,2.4h-13c0.1-0.7,0.3-1.4,0.7-2.1
		C366.5,324.9,367.3,324,368.4,323.3z"/>
</g>
</svg>
